<?xml version="1.0" encoding="UTF-8"?>
<svg id="Layer_2" data-name="Layer 2" xmlns="http://www.w3.org/2000/svg" viewBox="0 0 240 234">
  <defs>
    <style>
      .cls-1 {
        fill: #f24e1e;
      }

      .cls-2 {
        fill: #a259ff;
      }

      .cls-3 {
        fill: #ff7262;
      }

      .cls-4 {
        fill: #1abcfe;
      }

      .cls-5 {
        fill: #333;
      }

      .cls-6 {
        fill: #0acf83;
      }
    </style>
  </defs>
  <g id="Layer_1-2" data-name="Layer 1">
    <g>
      <g id="Surfaces">
        <g id="Photo_Surface" data-name="Photo Surface">
          <g id="Outline_no_shadow" data-name="Outline no shadow">
            <path class="cls-5" d="m42.5,0h155c23.5,0,42.5,19,42.5,42.5v149c0,23.5-19,42.5-42.5,42.5H42.5c-23.5,0-42.5-19-42.5-42.5V42.5C0,19,19,0,42.5,0Z"/>
          </g>
        </g>
      </g>
      <g>
        <path id="path0_fill" data-name="path0 fill" class="cls-6" d="m92.63,204.01c15.11,0,27.37-12.26,27.37-27.37v-27.37h-27.37c-15.11,0-27.37,12.26-27.37,27.37s12.26,27.37,27.37,27.37Z"/>
        <path id="path1_fill" data-name="path1 fill" class="cls-2" d="m65.26,121.9c0-15.11,12.26-27.37,27.37-27.37h27.37v54.74h-27.37c-15.11,0-27.37-12.26-27.37-27.37Z"/>
        <path id="path1_fill-2" data-name="path1 fill" class="cls-1" d="m65.26,67.17c0-15.11,12.26-27.37,27.37-27.37h27.37v54.74h-27.37c-15.11,0-27.37-12.26-27.37-27.37Z"/>
        <path id="path2_fill" data-name="path2 fill" class="cls-3" d="m120,39.8h27.37c15.11,0,27.37,12.26,27.37,27.37s-12.26,27.37-27.37,27.37h-27.37v-54.74Z"/>
        <path id="path3_fill" data-name="path3 fill" class="cls-4" d="m174.74,121.9c0,15.11-12.26,27.37-27.37,27.37s-27.37-12.26-27.37-27.37,12.26-27.37,27.37-27.37,27.37,12.26,27.37,27.37Z"/>
      </g>
    </g>
  </g>
</svg>