<?xml version="1.0" encoding="UTF-8"?>
<svg id="Layer_2" data-name="Layer 2" xmlns="http://www.w3.org/2000/svg" viewBox="0 0 23.01 20.2">
  <defs>
    <style>
      .cls-1 {
        fill: #ee3152;
      }
    </style>
  </defs>
  <g id="Layer_1-2" data-name="Layer 1">
    <path class="cls-1" d="m3.16,3.47l1.71-1.28,1.61-.39h1.45l1.31.46.92.95,1.05,1.15.29.99.82-1.77,1.35-1.12,1.05-.66h2.4l1.15.43,1.22.66.82,1.22.7,1.25.29,1.45v1.58l-.82,1.74-.89,1.19-.82.95-.89.72-1.12.95-.95,1.08-1.05.99-1.05.82-.82.82-.89.79-.5.2-1.15-.82-.92-.82-.79-.72-1.08-.79-.85-.72-.76-.66-.85-.82-.79-.82-.72-.66-.79-.79-.49-.79-.31-.69-.41-.76-.23-1.12v-.92l.26-.89.38-.99.28-.79.89-.59Zm13.13-1.46c-1.48-.06-2.89.68-3.68,1.94-.83,1.18-.97,1.77-1.11,1.77s-.28-.59-1.12-1.76c-.8-1.25-2.19-1.99-3.68-1.94-2.74.15-4.84,2.48-4.71,5.22,0,3.05,2.64,4.95,5.2,7.22,2.16,1.93,3.83,3.44,4.3,3.75.44-.28,1.79-1.51,4.3-3.75,2.55-2.26,5.2-4.15,5.2-7.22.13-2.74-1.97-5.07-4.71-5.22m6.71,5.22c0,3.62-2.65,5.92-4.98,7.94-.3.26-.59.51-.89.77l-.92.82c-1.15,1.1-2.36,2.14-3.63,3.11-.66.43-1.51.43-2.17,0-1.22-.94-2.4-1.95-3.52-3.02l-1.03-.92c-.28-.25-.57-.5-.85-.75C2.55,13.05,0,10.83,0,7.22-.13,3.38,2.87.15,6.71,0c1.84-.05,3.6.73,4.79,2.13C12.69.73,14.46-.06,16.3,0c3.84.15,6.84,3.38,6.71,7.22Z"/>
  </g>
</svg>