<?xml version="1.0" encoding="UTF-8"?>
<svg id="Layer_2" data-name="Layer 2" xmlns="http://www.w3.org/2000/svg" xmlns:xlink="http://www.w3.org/1999/xlink" viewBox="0 0 133.9 28.69">
  <defs>
    <style>
      .cls-1 {
        stroke: url(#linear-gradient);
        stroke-width: 5.04px;
      }

      .cls-1, .cls-2 {
        fill: none;
        stroke-miterlimit: 10;
      }

      .cls-2 {
        stroke: #211a4e;
        stroke-width: 2.77px;
      }

      .cls-3 {
        fill: #221a4e;
      }

      .cls-4 {
        fill: #5c58a0;
      }
    </style>
    <linearGradient id="linear-gradient" x1="9.32" y1="14.34" x2="48.41" y2="14.34" gradientUnits="userSpaceOnUse">
      <stop offset="0" stop-color="#625ea9"/>
      <stop offset="1" stop-color="#21174b"/>
    </linearGradient>
  </defs>
  <g id="Layer_1-2" data-name="Layer 1">
    <path class="cls-1" d="m22.78,15.26c-1.65,1.65-3.3,3.3-4.95,4.95-1.66-1.66-3.33-3.33-4.99-4.99-.28-.41-1.04-1.64-1-3.37.05-1.83.96-3.06,1.26-3.44.32-.39,1.39-1.6,3.25-2.02,2.22-.5,3.95.49,4.33.71,4.97,4.94,9.93,9.88,14.9,14.82m9.49-7.76l-5.71-5.71-5.63,5.63m4.27,10.27l-2.43-2.43m9.49-7.76l1.55,1.55m-18.95,4.44l-6.75,6.75M36.28,1.78l-7.44,7.44"/>
    <path class="cls-2" d="m49.98,12.55c1.44.49,2.54,1.39,3.3,2.69.85,1.45,1.05,3.05.6,4.78-.45,1.75-1.41,3.05-2.86,3.91-1.45.86-3.03,1.07-4.73.63-1.69-.44-2.96-1.39-3.8-2.85-.76-1.32-.99-2.76-.69-4.32"/>
    <path class="cls-3" d="m59.56,25.2h-2.76v-13.06h5.11c1.65,0,2.93.37,3.84,1.11.91.74,1.36,1.78,1.36,3.13,0,.89-.26,1.66-.77,2.32-.52.66-1.24,1.15-2.17,1.46l3.36,5.04h-3.29l-2.95-4.62h-1.73v4.62Zm0-10.77v3.87h2.22c1.71,0,2.57-.64,2.57-1.93s-.86-1.95-2.57-1.95h-2.22Z"/>
    <path class="cls-3" d="m74.87,25.2h-2.77v-10.57h-4.11v-2.49h11v2.49h-4.13v10.57Z"/>
    <path class="cls-3" d="m83.42,25.2h-2.76v-13.06h8.44v2.4h-5.67v3.29h4.78v2.38h-4.78v4.98Z"/>
    <path class="cls-3" d="m96.89,25.47c-1.89,0-3.48-.65-4.76-1.95-1.28-1.3-1.92-2.92-1.92-4.87s.64-3.56,1.92-4.85c1.28-1.29,2.87-1.94,4.76-1.94s3.5.65,4.78,1.94c1.29,1.29,1.93,2.91,1.93,4.85s-.64,3.58-1.93,4.87c-1.29,1.3-2.88,1.95-4.78,1.95Zm-2.79-3.72c.7.83,1.63,1.25,2.79,1.25s2.1-.42,2.8-1.25c.7-.83,1.05-1.86,1.05-3.1s-.35-2.26-1.05-3.08c-.7-.82-1.63-1.23-2.81-1.23s-2.09.41-2.79,1.23c-.7.82-1.05,1.85-1.05,3.08s.35,2.27,1.05,3.1Z"/>
    <path class="cls-3" d="m113.95,25.2h-8.44v-13.06h2.76v10.57h5.67v2.49Z"/>
    <path class="cls-3" d="m118.61,25.2h-2.76v-13.06h2.76v13.06Z"/>
    <path class="cls-3" d="m127.19,25.47c-1.89,0-3.48-.65-4.76-1.95-1.28-1.3-1.92-2.92-1.92-4.87s.64-3.56,1.92-4.85c1.28-1.29,2.87-1.94,4.76-1.94s3.5.65,4.78,1.94c1.29,1.29,1.93,2.91,1.93,4.85s-.64,3.58-1.93,4.87c-1.29,1.3-2.88,1.95-4.78,1.95Zm-2.79-3.72c.7.83,1.63,1.25,2.79,1.25s2.1-.42,2.8-1.25c.7-.83,1.05-1.86,1.05-3.1s-.35-2.26-1.05-3.08c-.7-.82-1.63-1.23-2.81-1.23s-2.09.41-2.79,1.23c-.7.82-1.05,1.85-1.05,3.08s.35,2.27,1.05,3.1Z"/>
    <circle class="cls-4" cx="2.49" cy="14.09" r="2.49"/>
  </g>
</svg>