<?xml version="1.0" encoding="UTF-8"?>
<svg id="Layer_2" data-name="Layer 2" xmlns="http://www.w3.org/2000/svg" viewBox="0 0 194.48 52.53">
  <defs>
    <style>
      .cls-1 {
        fill: #414042;
      }
    </style>
  </defs>
  <g id="Layer_1-2" data-name="Layer 1">
    <path class="cls-1" d="m0,0h11.49l15.34,37.46h.59L42.8,0h11.63v51.73h-9.2V16.18h-.42l-14.37,35.38h-6.73L9.51,16.11h-.49v35.62H0V0Z"/>
    <path class="cls-1" d="m61.93,51.73V0h33.67v7.85h-24.3v13.89h22.5v7.74h-22.5v14.41h24.44v7.85h-33.81Z"/>
    <path class="cls-1" d="m145.01,0v51.73h-8.4l-24.34-35.24h-.45v35.24h-9.37V0h8.4l24.34,35.24h.45V0h9.37Z"/>
    <path class="cls-1" d="m185.14,0h9.34v33.78c0,3.7-.87,6.96-2.6,9.77-1.74,2.81-4.18,5.01-7.33,6.6-3.15,1.58-6.83,2.38-11.04,2.38s-7.89-.79-11.04-2.38c-3.15-1.58-5.6-3.78-7.34-6.6-1.75-2.81-2.62-6.07-2.62-9.77V0h9.37v33.01c0,2.18.47,4.1,1.42,5.76.95,1.67,2.3,2.98,4.04,3.94,1.75.96,3.8,1.44,6.16,1.44s4.41-.48,6.14-1.44c1.74-.96,3.08-2.27,4.04-3.94.96-1.67,1.44-3.59,1.44-5.76V0Z"/>
  </g>
</svg>